<svg width="1107" height="609" viewBox="0 0 1107 609" fill="none" xmlns="http://www.w3.org/2000/svg">
<path fill-rule="evenodd" clip-rule="evenodd" d="M385.44 119.39H798.29C810.09 119.39 820.98 123.6 829.02 130.38C837.83 137.81 843.3 148.3 843.3 160.05V474.04C843.3 485.79 837.83 496.28 829.02 503.72C820.98 510.5 810.09 514.7 798.29 514.7H566.48L562.24 503.5C561.62 501.84 560.92 500.32 560.17 498.93C559.42 497.55 558.45 496.04 557.27 494.43L556.19 492.74C551.43 484.23 544.51 477.15 536.21 472.28C528.23 467.6 518.85 464.91 508.76 464.91C496.71 464.91 485.64 468.76 476.73 475.27C467.52 481.99 460.51 491.53 456.97 502.62L453.11 514.7H385.44C373.65 514.7 362.76 510.5 354.72 503.72C345.91 496.29 340.43 485.79 340.43 474.04V160.05C340.43 148.3 345.91 137.81 354.72 130.38C362.76 123.6 373.65 119.39 385.44 119.39ZM798.29 153.95H385.44C381.99 153.95 379.01 155 377 156.7C375.76 157.74 374.99 158.94 374.99 160.05V474.04C374.99 475.15 375.76 476.35 377 477.39C379.01 479.09 381.99 480.14 385.44 480.14H429.03C435.42 467.14 444.88 455.92 456.48 447.45C471.21 436.7 489.28 430.35 508.76 430.35C525.04 430.35 540.38 434.81 553.62 442.58C567.01 450.43 578.13 461.63 585.81 475C586.94 476.61 588.04 478.32 589.1 480.14H798.29C801.75 480.14 804.73 479.09 806.74 477.39C807.97 476.35 808.75 475.15 808.75 474.04V160.05C808.75 158.94 807.97 157.74 806.74 156.7C804.73 155 801.75 153.95 798.29 153.95Z" fill="white"/>
<path fill-rule="evenodd" clip-rule="evenodd" d="M843.47 214.09H982.1C997.71 214.09 1057.69 301.45 1088.06 345.69C1095.66 356.76 1101.38 365.09 1102.93 367.25L1106.24 377.31V477.59C1106.24 487.09 1102.92 495.91 1097.57 502.46C1091.4 510.01 1082.62 514.7 1072.75 514.7H1013.76L1009.9 502.62C1006.36 491.53 999.35 481.99 990.14 475.27C981.23 468.76 970.16 464.91 958.11 464.91C946.07 464.91 935 468.76 926.08 475.27C916.88 481.99 909.86 491.53 906.33 502.62L902.47 514.7H843.47C833.6 514.7 824.83 510.01 818.66 502.46C813.31 495.91 809.99 487.09 809.99 477.59V251.21C809.99 241.7 813.31 232.88 818.66 226.33C824.83 218.78 833.6 214.09 843.47 214.09ZM982.1 248.65H845.03C844.72 249.29 844.55 250.17 844.55 251.21V477.59C844.55 478.63 844.72 479.5 845.03 480.14H878.39C884.77 467.14 894.24 455.92 905.83 447.45C920.56 436.7 938.64 430.35 958.11 430.35C977.59 430.35 995.66 436.7 1010.39 447.45C1021.99 455.92 1031.45 467.14 1037.84 480.14H1071.2C1071.5 479.5 1071.68 478.63 1071.68 477.59V382.69C1068.58 378.24 1064.51 372.32 1059.58 365.13C1032.69 325.97 984.6 248.65 982.1 248.65Z" fill="white"/>
<path fill-rule="evenodd" clip-rule="evenodd" d="M1042.72 280.45C1060.93 306.17 1076.78 329.27 1088.04 345.66C1095.65 356.75 1101.38 365.09 1102.93 367.25L1106.24 377.31V412.48H966.68C949.24 412.48 933.39 405.35 921.92 393.88C910.44 382.4 903.32 366.56 903.32 349.12V336.46C903.32 319.02 910.44 303.17 921.92 291.7C933.39 280.22 949.24 273.1 966.68 273.1H1037.51L1042.72 280.45ZM1059.55 365.1C1048.26 348.65 1032.9 326.28 1019.83 307.66H966.68C958.78 307.66 951.58 310.9 946.36 316.13C941.13 321.36 937.88 328.56 937.88 336.46V349.12C937.88 357.02 941.13 364.22 946.36 369.44C951.58 374.67 958.78 377.92 966.68 377.92H1068.37C1065.85 374.27 1062.9 369.98 1059.55 365.1Z" fill="white"/>
<path fill-rule="evenodd" clip-rule="evenodd" d="M958.11 430.35C982.65 430.35 1004.86 440.3 1020.94 456.38C1037.02 472.46 1046.96 494.67 1046.96 519.2C1046.96 543.73 1037.02 565.95 1020.94 582.03C1004.86 598.1 982.65 608.05 958.11 608.05C933.58 608.05 911.37 598.1 895.29 582.03C879.21 565.95 869.26 543.73 869.26 519.2C869.26 494.67 879.21 472.46 895.29 456.38C911.37 440.3 933.58 430.35 958.11 430.35ZM996.5 480.81C986.68 470.99 973.11 464.91 958.11 464.91C943.12 464.91 929.55 470.99 919.72 480.81C909.9 490.63 903.83 504.21 903.83 519.2C903.83 534.19 909.9 547.77 919.72 557.59C929.55 567.41 943.12 573.49 958.11 573.49C973.11 573.49 986.68 567.41 996.5 557.59C1006.33 547.77 1012.4 534.19 1012.4 519.2C1012.4 504.21 1006.33 490.63 996.5 480.81Z" fill="white"/>
<path d="M303.52 251.71C313.06 251.71 320.8 243.97 320.8 234.43C320.8 224.89 313.06 217.15 303.52 217.15H114.31C104.76 217.15 97.03 224.89 97.03 234.43C97.03 243.97 104.76 251.71 114.31 251.71H303.52Z" fill="white"/>
<path d="M303.52 341.06C313.06 341.06 320.8 333.32 320.8 323.78C320.8 314.24 313.06 306.5 303.52 306.5H17.6C8.06001 306.5 0.320007 314.24 0.320007 323.78C0.320007 333.32 8.06001 341.06 17.6 341.06H303.52Z" fill="white"/>
<path d="M303.52 430.41C313.06 430.41 320.8 422.67 320.8 413.13C320.8 403.58 313.06 395.85 303.52 395.85H114.31C104.76 395.85 97.03 403.58 97.03 413.13C97.03 422.67 104.76 430.41 114.31 430.41H303.52Z" fill="white"/>
<path fill-rule="evenodd" clip-rule="evenodd" d="M508.76 430.35C533.29 430.35 555.5 440.3 571.58 456.38C587.66 472.46 597.61 494.67 597.61 519.2C597.61 543.73 587.66 565.95 571.58 582.03C555.5 598.1 533.29 608.05 508.76 608.05C484.22 608.05 462.01 598.1 445.93 582.03C429.85 565.95 419.91 543.73 419.91 519.2C419.91 494.67 429.85 472.46 445.93 456.38C462.01 440.3 484.22 430.35 508.76 430.35ZM547.14 480.81C537.32 470.99 523.75 464.91 508.76 464.91C493.76 464.91 480.19 470.99 470.37 480.81C460.54 490.63 454.47 504.21 454.47 519.2C454.47 534.19 460.54 547.77 470.37 557.59C480.19 567.41 493.76 573.49 508.76 573.49C523.75 573.49 537.32 567.41 547.14 557.59C556.97 547.77 563.04 534.19 563.04 519.2C563.04 504.21 556.97 490.63 547.14 480.81Z" fill="white"/>
<path d="M958.11 536.08C967.41 536.08 975 528.5 975 519.2C975 509.9 967.41 502.32 958.11 502.32C948.81 502.32 941.23 509.9 941.23 519.2C941.23 528.5 948.81 536.08 958.11 536.08Z" fill="white"/>
<path d="M508.76 536.08C518.06 536.08 525.64 528.5 525.64 519.2C525.64 509.9 518.06 502.32 508.76 502.32C499.46 502.32 491.87 509.9 491.87 519.2C491.87 528.5 499.46 536.08 508.76 536.08Z" fill="white"/>
<path d="M585.632 230.98C594.999 244.361 606.566 261.216 620.332 281.545C642.317 314.003 660.641 368.604 621.149 395.744C612.358 401.785 601.875 404.968 591.258 405.479C571.534 406.426 551.018 396.799 539.472 380.671C526.545 362.614 527.769 338.166 535.044 318.161C535.21 317.707 535.376 317.257 535.548 316.807C541.992 299.887 552.515 284.562 563.661 270.41C576.185 254.513 583.508 241.369 585.632 230.98Z" fill="#0F738F"/>
<path d="M615.699 259.711C633.321 283.511 650.529 307.465 654.269 337.651C655.95 351.227 654.222 365.087 648.174 377.435C634.696 404.968 600.658 418.68 571.3 412.513C550.319 408.107 532.985 392.332 524.543 372.866C515.756 352.598 517.71 331.052 526.8 311.285C533.968 295.697 550.701 269.896 560.756 256.09C547.166 268.697 535.509 281.934 525.785 295.801C502.612 328.849 495.02 371.596 521.825 403.952C542.957 429.466 578.95 439.477 610.868 433.217C644.15 426.683 675.045 399.661 681.546 365.602C689.592 323.435 658.694 285.804 632.896 256.352C619.842 241.452 606.396 226.786 594.725 210.748C585.704 198.349 575.904 183.64 574.997 167.828C574.936 166.792 574.918 165.751 574.95 164.711C574.832 168.57 573.59 172.278 573.806 176.332C574.49 189.151 579.36 201.676 584.991 213.055C593.17 229.579 604.517 244.616 615.699 259.711Z" fill="#52C9EA"/>
<path d="M585.632 230.98C594.999 244.361 606.566 261.216 620.332 281.545C642.317 314.003 660.641 368.604 621.149 395.744C612.358 401.785 601.875 404.968 591.258 405.479C571.534 406.426 551.018 396.799 539.472 380.671C526.545 362.614 527.769 338.166 535.044 318.161C535.21 317.707 535.376 317.257 535.548 316.807C541.992 299.887 552.515 284.562 563.661 270.41C576.185 254.513 583.508 241.369 585.632 230.98Z" fill="#0F738F"/>
</svg>
