<svg width="200" height="200" viewBox="0 0 200 200" fill="none" xmlns="http://www.w3.org/2000/svg">
<path d="M161.203 77.3589H153.814V59.8233C153.814 57.6911 152.086 56 149.991 56H13.8233C11.6911 56 10 57.7278 10 59.8233V124.966C10 127.098 11.7278 128.789 13.8233 128.789H23.9329C25.6975 137.024 33.0132 143.2 41.7626 143.2C50.512 143.2 57.8277 137.024 59.5922 128.789H132.087C133.852 137.024 141.168 143.2 149.917 143.2C158.666 143.2 165.982 137.024 167.747 128.789H186.201C188.334 128.789 190.025 127.061 190.025 124.966V106.291C190.135 90.3359 177.158 77.3589 161.203 77.3589ZM41.7993 135.553C35.9541 135.553 31.2118 130.811 31.2118 124.966C31.2118 119.121 35.9541 114.378 41.7993 114.378C47.6445 114.378 52.3869 119.121 52.3869 124.966C52.3869 130.811 47.6445 135.553 41.7993 135.553ZM132.124 121.143H59.629C59.629 121.106 59.629 121.143 59.629 121.179C57.8644 112.945 50.5487 106.732 41.7626 106.732C33.0132 106.732 25.6607 112.945 23.9329 121.179C23.9329 121.143 23.9329 121.143 23.9329 121.143H17.6833V63.6465H146.167V107.136C134.403 109.93 132.418 120.077 132.124 121.143ZM149.991 135.553C144.145 135.553 139.403 130.811 139.403 124.966C139.403 119.121 144.145 114.378 149.991 114.378C155.836 114.378 160.578 119.121 160.578 124.966C160.578 130.811 155.836 135.553 149.991 135.553ZM182.452 121.143H167.82C167.783 120.922 165.688 109.857 153.814 107.136V85.0054H161.203C172.93 85.0054 182.488 94.5636 182.488 106.291V121.143H182.452Z" fill="#52C9EA"/>
<path d="M161.203 77.3589H153.814V59.8233C153.814 57.6911 152.086 56 149.991 56H13.8233C11.6911 56 10 57.7278 10 59.8233V124.966C10 127.098 11.7278 128.789 13.8233 128.789H23.9329C25.6975 137.024 33.0132 143.2 41.7626 143.2C50.512 143.2 57.8277 137.024 59.5922 128.789H132.087C133.852 137.024 141.168 143.2 149.917 143.2C158.666 143.2 165.982 137.024 167.747 128.789H186.201C188.334 128.789 190.025 127.061 190.025 124.966V106.291C190.135 90.3359 177.158 77.3589 161.203 77.3589ZM41.7993 135.553C35.9541 135.553 31.2118 130.811 31.2118 124.966C31.2118 119.121 35.9541 114.378 41.7993 114.378C47.6445 114.378 52.3869 119.121 52.3869 124.966C52.3869 130.811 47.6445 135.553 41.7993 135.553ZM132.124 121.143H59.629C59.629 121.106 59.629 121.143 59.629 121.179C57.8644 112.945 50.5487 106.732 41.7626 106.732C33.0132 106.732 25.6607 112.945 23.9329 121.179C23.9329 121.143 23.9329 121.143 23.9329 121.143H17.6833V63.6465H146.167V107.136C134.403 109.93 132.418 120.077 132.124 121.143ZM149.991 135.553C144.145 135.553 139.403 130.811 139.403 124.966C139.403 119.121 144.145 114.378 149.991 114.378C155.836 114.378 160.578 119.121 160.578 124.966C160.578 130.811 155.836 135.553 149.991 135.553ZM182.452 121.143H167.82C167.783 120.922 165.688 109.857 153.814 107.136V85.0054H161.203C172.93 85.0054 182.488 94.5636 182.488 106.291V121.143H182.452Z" fill="#52C9EA"/>
</svg>
