<svg width="200" height="200" viewBox="0 0 200 200" fill="none" xmlns="http://www.w3.org/2000/svg">
<path d="M178.511 49.1743H138.098C135.566 49.1743 133.513 51.2329 133.513 53.7725V111.282H128.582V62.0552C128.582 59.5156 126.528 57.457 123.996 57.457C121.464 57.457 119.411 59.5156 119.411 62.0552V68.0329H15.1707V62.0552C15.1707 59.5156 13.1174 57.457 10.5854 57.457C8.05333 57.457 6 59.5156 6 62.0552V132.506C6 135.046 8.05333 137.105 10.5854 137.105H20.9428C22.8723 145.429 30.3249 151.652 39.2045 151.652C48.084 151.652 55.5371 145.429 57.4666 137.105H68.1244C70.0539 145.429 77.507 151.652 86.3865 151.652C95.2661 151.652 102.719 145.429 104.649 137.105H123.996C126.528 137.105 128.581 135.046 128.581 132.506V132.447H133.512V132.506C133.512 135.046 135.565 137.105 138.098 137.105H145.248C147.177 145.429 154.631 151.652 163.51 151.652C172.523 151.652 180.069 145.242 181.859 136.731C188.699 135.195 193.827 129.061 193.827 121.746V64.5332C193.827 56.0642 186.956 49.1743 178.511 49.1743ZM163.511 142.456C158.227 142.456 153.928 138.145 153.928 132.847C153.928 127.549 158.227 123.238 163.511 123.238C168.794 123.238 173.093 127.549 173.093 132.847C173.093 138.145 168.794 142.456 163.511 142.456ZM95.969 132.847C95.969 138.145 91.6702 142.456 86.387 142.456C81.1037 142.456 76.8049 138.145 76.8049 132.847C76.8049 127.549 81.1037 123.238 86.387 123.238C91.6702 123.238 95.969 127.549 95.969 132.847ZM48.787 132.847C48.787 138.145 44.4882 142.456 39.2049 142.456C33.9217 142.456 29.6233 138.145 29.6233 132.847C29.6233 127.549 33.9217 123.238 39.2049 123.238C44.4882 123.238 48.787 127.549 48.787 132.847ZM15.1707 77.2293H119.411V111.268V127.908H104.479C102.31 119.927 95.023 114.041 86.387 114.041C77.7509 114.041 70.4638 119.927 68.2949 127.908H57.2965C55.1276 119.927 47.8405 114.041 39.2045 114.041C30.5684 114.041 23.2818 119.927 21.1129 127.908H15.1707V77.2293ZM128.582 120.479H133.513V123.251H128.582V120.479ZM163.511 114.042C154.874 114.042 147.587 119.928 145.419 127.908H142.683L142.684 58.3707H184.014L184.656 121.746C184.656 124.1 183.333 126.147 181.393 127.185C178.992 119.574 171.884 114.042 163.511 114.042ZM184.656 80.4099H162.753V71.0034H184.656V80.4099ZM184.014 61.8069H158.168C155.636 61.8069 153.582 63.8656 153.582 66.4051V85.0081C153.582 87.5477 155.636 89.6064 158.168 89.6064H184.657L184.014 58.3707H142.684H178.512C180.923 58.3707 183.008 59.7745 184.014 61.8069Z" fill="#52C9EA"/>
</svg>
