<svg width="200" height="200" viewBox="0 0 200 200" fill="none" xmlns="http://www.w3.org/2000/svg">
<path d="M164.061 94.4502H156.386V41.2102C156.386 38.9903 154.514 37 152.338 37H10.9714C8.75658 37 7 39.0286 7 41.2102V144.016C7 146.236 8.79477 147.996 10.9714 147.996H21.4727C23.3056 156.57 30.9047 163 39.9931 163C49.0815 163 56.6806 156.57 58.5136 147.996H133.817C135.65 156.57 143.249 163 152.338 163C161.426 163 169.025 156.57 170.858 147.996H190.028C192.243 147.996 193.999 146.197 193.999 144.016V124.572C194.114 107.961 180.634 94.4502 164.061 94.4502ZM40.0313 155.039C33.9597 155.039 29.0336 150.101 29.0336 144.016C29.0336 137.93 33.9597 132.993 40.0313 132.993C46.103 132.993 51.029 137.93 51.029 144.016C51.029 150.101 46.103 155.039 40.0313 155.039ZM133.856 140.035H58.5518C58.5518 139.997 58.5518 140.035 58.5518 140.074C56.7188 131.5 49.1197 125.032 39.9931 125.032C30.9047 125.032 23.2674 131.5 21.4727 140.074C21.4727 140.035 21.4727 140.035 21.4727 140.035H14.981V43.8894H148.443V125.453C136.223 128.361 134.161 138.925 133.856 140.035ZM152.414 155.039C146.343 155.039 141.416 150.101 141.416 144.016C141.416 137.93 146.343 132.993 152.414 132.993C158.486 132.993 163.412 137.93 163.412 144.016C163.412 150.101 158.486 155.039 152.414 155.039ZM186.133 140.035H170.935C170.896 139.806 168.72 128.285 156.386 125.453V102.411H164.061C176.243 102.411 186.171 112.363 186.171 124.572V140.035H186.133Z" fill="#52C9EA"/>
</svg>
